<svg width="173" height="30" viewBox="0 0 173 46" fill="none" xmlns="http://www.w3.org/2000/svg">
<path fill-rule="evenodd" clip-rule="evenodd" d="M29.5942 30.8913C41.577 19.5573 48.5378 7.50778 45.1416 3.97794C41.7454 0.448107 29.2782 6.77464 17.2953 18.1087C5.31251 29.4427 -1.64829 41.4922 1.74794 45.022C5.14418 48.5519 17.6114 42.2253 29.5942 30.8913ZM27.4365 31.1457C38.2037 20.9615 44.5819 10.2628 41.6827 7.24957C38.7835 4.2363 27.7046 10.0495 16.9375 20.2337C6.17029 30.4178 -0.20794 41.1165 2.69128 44.1298C5.59051 47.143 16.6693 41.3299 27.4365 31.1457Z" fill="#DDF8F8"/>
<path fill-rule="evenodd" clip-rule="evenodd" d="M29.264 17.8116C16.7242 7.08623 3.95335 1.38611 0.739495 5.08001C-2.47436 8.77391 5.0858 20.463 17.6256 31.1884C30.1653 41.9137 42.9362 47.6139 46.15 43.92C49.3639 40.2261 41.8037 28.5369 29.264 17.8116ZM29.7286 19.9162C18.461 10.2789 7.10271 5.02261 4.35918 8.17594C1.61564 11.3293 8.52579 21.6981 19.7934 31.3354C31.061 40.9727 42.4193 46.2289 45.1629 43.0756C47.9064 39.9223 40.9962 29.5534 29.7286 19.9162Z" fill="#DDF8F8"/>
<path fill-rule="evenodd" clip-rule="evenodd" d="M27.2559 28.461C34.881 21.2488 39.356 13.6287 37.2512 11.4411C35.1464 9.25347 27.2588 13.3267 19.6337 20.539C12.0086 27.7512 7.5335 35.3713 9.63831 37.5589C11.7431 39.7465 19.6308 35.6732 27.2559 28.461ZM25.8978 28.6384C32.7493 22.1578 36.847 15.3904 35.0502 13.5229C33.2534 11.6555 26.2425 15.3951 19.391 21.8757C12.5395 28.3562 8.4418 35.1236 10.2386 36.9911C12.0354 38.8586 19.0462 35.1189 25.8978 28.6384Z" fill="#DDF8F8"/>
<path fill-rule="evenodd" clip-rule="evenodd" d="M29.8684 22.8839C20.5596 14.5198 11.3534 9.55537 9.30578 11.7957C7.25811 14.036 13.1444 22.6326 22.4531 30.9968C31.7619 39.361 40.9681 44.3254 43.0157 42.0851C45.0634 39.8448 39.1771 31.2481 29.8684 22.8839ZM30.3029 24.3555C21.9385 16.8399 13.7408 12.2976 11.9928 14.2101C10.2448 16.1225 15.6084 23.7655 23.9728 31.2811C32.3372 38.7968 40.5349 43.3391 42.2829 41.4266C44.0309 39.5142 38.6673 31.8712 30.3029 24.3555Z" fill="#DDF8F8"/>
<path d="M28.2251 24.5C28.2251 27.2366 26.1822 29.4552 23.6621 29.4552C21.1419 29.4552 19.099 27.2366 19.099 24.5C19.099 21.7633 21.1419 19.5448 23.6621 19.5448C26.1822 19.5448 28.2251 21.7633 28.2251 24.5Z" fill="#DDF8F8"/>
<path d="M65.288 23.672C67.272 24.024 68.872 24.984 70.088 26.552C71.336 28.088 71.96 29.976 71.96 32.216C71.96 33.72 71.656 35.08 71.048 36.296C70.472 37.512 69.64 38.536 68.552 39.368C67.496 40.232 66.2 40.888 64.664 41.336C63.128 41.816 61.4 42.056 59.48 42.056C57.048 42.056 54.888 41.656 53 40.856C51.144 40.088 49.592 38.952 48.344 37.448L51.992 32.888C52.824 33.944 53.816 34.76 54.968 35.336C56.12 35.912 57.56 36.2 59.288 36.2C61.24 36.2 62.728 35.816 63.752 35.048C64.776 34.28 65.288 33.096 65.288 31.496C65.288 29.832 64.696 28.552 63.512 27.656C62.328 26.76 60.536 26.312 58.136 26.312H56.792V21.512H58.28C60.264 21.512 61.8 21.08 62.888 20.216C63.976 19.32 64.52 18.184 64.52 16.808C64.52 15.496 64.072 14.52 63.176 13.88C62.28 13.24 61.112 12.92 59.672 12.92C58.2 12.92 56.872 13.256 55.688 13.928C54.536 14.6 53.592 15.544 52.856 16.76L48.824 12.248C49.304 11.512 49.944 10.856 50.744 10.28C51.544 9.67198 52.44 9.15998 53.432 8.74398C54.456 8.29598 55.56 7.95998 56.744 7.73598C57.928 7.47998 59.144 7.35198 60.392 7.35198C62.024 7.35198 63.512 7.55998 64.856 7.97598C66.2 8.39198 67.352 8.96798 68.312 9.70398C69.304 10.44 70.056 11.336 70.568 12.392C71.112 13.416 71.384 14.568 71.384 15.848C71.384 16.808 71.24 17.72 70.952 18.584C70.664 19.448 70.248 20.232 69.704 20.936C69.16 21.64 68.504 22.232 67.736 22.712C67 23.192 66.184 23.512 65.288 23.672Z" fill="#DDF8F8"/>
<path d="M77.3176 35V0.919983H92.3896C93.9576 0.919983 95.3976 1.25598 96.7096 1.92798C98.0536 2.56798 99.2056 3.43198 100.166 4.51998C101.126 5.57598 101.878 6.79198 102.422 8.16798C102.966 9.51198 103.238 10.872 103.238 12.248C103.238 14.456 102.678 16.472 101.558 18.296C100.47 20.088 98.9816 21.384 97.0936 22.184L104.87 35H97.4296L90.4696 23.576H83.9416V35H77.3176ZM83.9416 17.768H92.2456C92.8536 17.768 93.4136 17.624 93.9256 17.336C94.4696 17.048 94.9336 16.664 95.3176 16.184C95.7016 15.672 96.0056 15.08 96.2296 14.408C96.4536 13.736 96.5656 13.016 96.5656 12.248C96.5656 11.448 96.4376 10.712 96.1816 10.04C95.9256 9.36798 95.5736 8.79198 95.1256 8.31198C94.7096 7.79998 94.2136 7.41598 93.6376 7.15998C93.0936 6.87198 92.5336 6.72798 91.9576 6.72798H83.9416V17.768Z" fill="#DDF8F8"/>
<path d="M115.151 35.48C113.935 35.48 112.799 35.288 111.743 34.904C110.687 34.488 109.775 33.928 109.007 33.224C108.239 32.488 107.631 31.64 107.183 30.68C106.767 29.72 106.559 28.664 106.559 27.512C106.559 26.328 106.815 25.24 107.327 24.248C107.871 23.224 108.607 22.36 109.535 21.656C110.495 20.952 111.631 20.408 112.943 20.024C114.255 19.608 115.695 19.4 117.263 19.4C118.383 19.4 119.471 19.496 120.527 19.688C121.615 19.88 122.575 20.152 123.407 20.504V19.064C123.407 17.4 122.927 16.12 121.967 15.224C121.039 14.328 119.647 13.88 117.791 13.88C116.447 13.88 115.135 14.12 113.855 14.6C112.575 15.08 111.263 15.784 109.919 16.712L107.951 12.632C111.183 10.488 114.671 9.41598 118.415 9.41598C122.031 9.41598 124.831 10.312 126.815 12.104C128.831 13.864 129.839 16.424 129.839 19.784V27.608C129.839 28.28 129.951 28.76 130.175 29.048C130.431 29.336 130.831 29.496 131.375 29.528V35C130.287 35.224 129.343 35.336 128.543 35.336C127.327 35.336 126.383 35.064 125.711 34.52C125.071 33.976 124.671 33.256 124.511 32.36L124.367 30.968C123.247 32.44 121.887 33.56 120.287 34.328C118.687 35.096 116.975 35.48 115.151 35.48ZM116.975 30.776C118.063 30.776 119.087 30.584 120.047 30.2C121.039 29.816 121.807 29.304 122.351 28.664C123.055 28.12 123.407 27.512 123.407 26.84V23.96C122.639 23.672 121.807 23.448 120.911 23.288C120.015 23.096 119.151 23 118.319 23C116.655 23 115.295 23.384 114.239 24.152C113.183 24.888 112.655 25.832 112.655 26.984C112.655 28.072 113.071 28.984 113.903 29.72C114.735 30.424 115.759 30.776 116.975 30.776Z" fill="#DDF8F8"/>
<path d="M166.394 9.84798H172.49L161.978 35H156.698L152.378 23.96L148.106 35H142.826L132.362 9.84798H138.41L145.898 28.952L148.97 20.792L144.554 9.89598H149.738L152.378 17.624L155.066 9.89598H160.25L155.882 20.792L158.906 28.952L166.394 9.84798Z" fill="#DDF8F8"/>
</svg>
